<svg width="32" height="32" viewBox="0 0 32 32" fill="none" xmlns="http://www.w3.org/2000/svg">
<rect width="32" height="32" rx="16" fill="white"/>
<g clip-path="url(#clip0_2126_1329)">
<path d="M15.9979 5L15.845 5.50135V20.0481L15.9979 20.1953L22.9957 16.204L15.9979 5Z" fill="#343434"/>
<path d="M15.9979 5L9 16.204L15.9979 20.1953V13.1348V5Z" fill="#8C8C8C"/>
<path d="M15.998 21.4739L15.9117 21.5753V26.7571L15.998 26.9999L23 17.4846L15.998 21.4739Z" fill="#3C3C3B"/>
<path d="M15.9979 26.9999V21.4739L9 17.4846L15.9979 26.9999Z" fill="#8C8C8C"/>
<path d="M15.9979 20.1954L22.9957 16.204L15.9979 13.1348V20.1954Z" fill="#141414"/>
<path d="M9 16.204L15.9979 20.1954V13.1348L9 16.204Z" fill="#393939"/>
</g>
<defs>
<clipPath id="clip0_2126_1329">
<rect width="14" height="22" fill="white" transform="translate(9 5)"/>
</clipPath>
</defs>
</svg>
