<svg width="64" height="19" viewBox="0 0 64 19" fill="none" xmlns="http://www.w3.org/2000/svg">
<path d="M64.0001 4.12897H56.5958V7.75185H62.9489V11.4667H56.5958V15.2966H64.0001V19H52.8936V0.460083H64.0001V4.12897Z" fill="#D4D4D4"/>
<path d="M40.9069 0.460111C46.8601 0.44861 50.4938 3.96798 50.4938 9.75309C50.4938 15.5037 46.8601 19.0001 40.9069 19.0001H35.5479V0.471612L40.9069 0.460111ZM40.9297 15.2852C44.552 15.2852 46.7573 13.1919 46.7573 9.74158C46.7573 6.26822 44.5405 4.152 40.8955 4.152H39.2386V15.2852H40.9297Z" fill="#D4D4D4"/>
<path d="M29.686 19L28.5205 16.4122H21.1503L19.9734 19H15.9741L24.7725 0H24.8868L33.6967 19H29.686ZM22.5901 13.2379H27.0807L24.8411 8.28087L22.5901 13.2379Z" fill="#D4D4D4"/>
<path d="M0 19L5.599 9.37346L0.342796 0.460022H4.59346L7.74719 6.07261L10.8895 0.460022H15.1402L9.87252 9.36196L15.4829 19H11.2323L7.73576 12.7778L4.25067 19H0Z" fill="#D4D4D4"/>
</svg>
